<svg xmlns="http://www.w3.org/2000/svg" width="140" height="134" fill="none"><mask id="a" width="82" height="66" x="29" y="34" maskUnits="userSpaceOnUse" ><path fill="#fff" d="M29.12 34.05h81.747v65.928H29.12V34.05Z"/></mask><g mask="url(#a)"><path fill="#fff" d="M110.81 94.638c-.003-.042-.015-.082-.026-.123-.012-.04-.021-.08-.04-.116-.004-.01-.004-.021-.01-.03l-5.749-9.888c1.861-.368 3.264-1.951 3.264-3.842V37.975c0-2.165-1.837-3.925-4.096-3.925H35.82c-2.26 0-4.097 1.76-4.097 3.925v42.664c0 1.891 1.403 3.474 3.264 3.842l-5.749 9.887c-.006.01-.006.021-.01.03-.019.037-.028.078-.04.117-.01.041-.023.08-.026.123 0 .01-.005.02-.005.032v4.692c0 .344.29.62.647.62h80.364a.634.634 0 0 0 .648-.62V94.67c0-.012-.006-.021-.006-.032Zm-7.261-10.074 5.515 9.485H30.908l5.517-9.485h67.124Zm-70.53-3.925V37.975c0-1.48 1.256-2.683 2.8-2.683h68.334c1.544 0 2.8 1.203 2.8 2.683v42.664c0 1.48-1.256 2.684-2.8 2.684H35.82c-1.545 0-2.8-1.203-2.8-2.684Zm76.5 18.102H30.453V95.29h79.066v3.452Z"/></g><path fill="#fff" d="M55.633 92.714c.12.181.326.292.55.292H83.79c.224 0 .43-.11.55-.292a.602.602 0 0 0 .034-.6l-2.072-4.091a.648.648 0 0 0-.582-.35H58.253a.65.65 0 0 0-.582.35l-2.072 4.09a.598.598 0 0 0 .034.601Zm3.026-3.8h22.653l1.444 2.85h-25.54l1.443-2.85ZM39.58 81.485h60.813c2.141 0 3.884-1.668 3.884-3.72V40.849c0-2.05-1.743-3.72-3.884-3.72H39.579c-2.14 0-3.883 1.67-3.883 3.72v36.916c0 2.052 1.742 3.72 3.883 3.72Zm-2.588-40.636c0-1.366 1.16-2.477 2.587-2.477h60.814c1.426 0 2.587 1.11 2.587 2.477v36.916c0 1.366-1.161 2.479-2.587 2.479H39.579c-1.426 0-2.587-1.113-2.587-2.48V40.85Z"/><path fill="#fff" d="M53.562 65.893h32.85c1.025 0 1.86-.8 1.86-1.782v-.151c0-.983-.835-1.781-1.86-1.781h-32.85c-1.027 0-1.861.8-1.861 1.78v.152c0 .982.834 1.782 1.86 1.782Zm-.565-1.933c0-.297.254-.539.565-.539h32.85c.31 0 .563.242.563.539v.15c0 .3-.254.54-.563.54h-32.85a.553.553 0 0 1-.565-.54v-.15ZM53.562 48.984h32.85c1.025 0 1.86-.8 1.86-1.782v-.15c0-.984-.835-1.782-1.86-1.782h-32.85c-1.027 0-1.861.8-1.861 1.782v.15c0 .982.834 1.782 1.86 1.782Zm-.565-1.932c0-.299.254-.54.565-.54h32.85c.31 0 .563.241.563.54v.15a.554.554 0 0 1-.563.541h-32.85a.554.554 0 0 1-.565-.541v-.15ZM57.498 55.44a.636.636 0 0 0-.648.62v2.051c0 1.57 1.333 2.845 2.97 2.845 1.637 0 2.97-1.276 2.97-2.845v-7.645a.635.635 0 0 0-.65-.62.635.635 0 0 0-.647.62v7.645c0 .884-.75 1.603-1.674 1.603-.923 0-1.672-.72-1.672-1.603v-2.05a.636.636 0 0 0-.65-.621ZM64.768 55.381c0 3.051 2.593 5.535 5.779 5.535s5.778-2.484 5.778-5.535c0-3.053-2.592-5.536-5.778-5.536-3.186 0-5.78 2.483-5.78 5.536Zm10.26 0c0 2.367-2.01 4.294-4.481 4.294-2.472 0-4.483-1.927-4.483-4.294 0-2.369 2.011-4.295 4.483-4.295 2.472 0 4.481 1.926 4.481 4.295ZM83.581 52.776c0-2.314-3.325-2.93-5.289-2.93a.636.636 0 0 0-.649.62v9.869c0 .343.29.621.649.621 1.964 0 5.29-.61 5.29-2.896 0-1.308-1.053-2.107-2.219-2.59.525-.196 1.024-.469 1.415-.84.534-.51.803-1.132.803-1.854Zm-1.296 5.284c0 1.123-2.062 1.523-3.346 1.626v-3.592c1.306.227 3.346.82 3.346 1.966Zm-.421-4.312c-.676.646-2.026.899-2.925.98v-3.611c1.284.103 3.346.512 3.346 1.66 0 .383-.139.702-.421.971ZM51.4 71.066h37.207a.634.634 0 0 0 .647-.621.634.634 0 0 0-.647-.621H51.4a.635.635 0 0 0-.647.62c0 .344.29.622.647.622ZM56.85 74.405c0 .343.29.621.648.621H92.88a.635.635 0 0 0 .65-.621.635.635 0 0 0-.65-.621H57.498a.635.635 0 0 0-.648.62ZM47.091 75.026h6.334a.635.635 0 0 0 .649-.621.635.635 0 0 0-.65-.621h-6.333a.635.635 0 0 0-.649.62c0 .344.29.622.65.622ZM47.091 78.499h45.79a.635.635 0 0 0 .65-.621.635.635 0 0 0-.65-.621h-45.79a.635.635 0 0 0-.649.62c0 .344.29.622.65.622ZM90.507 40.704a.942.942 0 0 1-.079.378 1.003 1.003 0 0 1-.56.538 1.07 1.07 0 0 1-1.128-.215 1.003 1.003 0 0 1-.225-.323.942.942 0 0 1 0-.758 1.003 1.003 0 0 1 .56-.537 1.07 1.07 0 0 1 1.129.215c.096.093.172.2.224.322a.944.944 0 0 1 .08.38ZM94.344 41.695c.572 0 1.035-.444 1.035-.991 0-.549-.463-.992-1.035-.992-.572 0-1.035.443-1.035.992 0 .547.463.99 1.035.99ZM100.252 40.704a.99.99 0 0 1-.304.7 1.063 1.063 0 0 1-1.127.215 1.033 1.033 0 0 1-.335-.214.98.98 0 0 1-.304-.701.98.98 0 0 1 .303-.702 1.065 1.065 0 0 1 1.127-.215 1.032 1.032 0 0 1 .561.537.953.953 0 0 1 .079.38Z"/></svg>